<svg width="48" height="48" viewBox="0 0 48 48" fill="none" xmlns="http://www.w3.org/2000/svg">
  <rect width="48" height="48" rx="12" fill="#0167F3" fill-opacity="0.1"/>
  <path d="M24 34C29.5228 34 34 29.5228 34 24C34 18.4772 29.5228 14 24 14C18.4772 14 14 18.4772 14 24C14 26.5 15 28.5 16.5 30L17 33L20 31.5C21.5 32.5 23 34 24 34Z" stroke="#0167F3" stroke-width="2" stroke-linecap="round" stroke-linejoin="round"/>
  <path d="M20 22C20.5523 22 21 21.5523 21 21C21 20.4477 20.5523 20 20 20C19.4477 20 19 20.4477 19 21C19 21.5523 19.4477 22 20 22Z" fill="#0167F3"/>
  <path d="M24 22C24.5523 22 25 21.5523 25 21C25 20.4477 24.5523 20 24 20C23.4477 20 23 20.4477 23 21C23 21.5523 23.4477 22 24 22Z" fill="#0167F3"/>
  <path d="M28 22C28.5523 22 29 21.5523 29 21C29 20.4477 28.5523 20 28 20C27.4477 20 27 20.4477 27 21C27 21.5523 27.4477 22 28 22Z" fill="#0167F3"/>
  <path d="M21 28C22.3333 26.6667 25.6667 26.6667 27 28" stroke="#0167F3" stroke-width="2" stroke-linecap="round"/>
</svg> 