<svg width="95" height="38" viewBox="0 0 95 38" fill="none" xmlns="http://www.w3.org/2000/svg">
<g clip-path="url(#clip0_36_2)">
<path d="M10.1161 13.1369L6.30101 16.952C5.16992 18.0831 5.16992 19.9169 6.30101 21.048L10.1161 24.8631C11.2472 25.9942 13.081 25.9942 14.2121 24.8631L18.0272 21.048C19.1583 19.9169 19.1583 18.0831 18.0272 16.952L14.2121 13.1369C13.081 12.0058 11.2472 12.0058 10.1161 13.1369Z" fill="url(#paint0_linear_36_2)"/>
<path d="M10.1161 13.1369L6.30101 16.952C5.16992 18.0831 5.16992 19.9169 6.30101 21.048L10.1161 24.8631C11.2472 25.9942 13.081 25.9942 14.2121 24.8631L18.0272 21.048C19.1583 19.9169 19.1583 18.0831 18.0272 16.952L14.2121 13.1369C13.081 12.0058 11.2472 12.0058 10.1161 13.1369Z" fill="url(#paint1_linear_36_2)"/>
<path d="M10.1161 13.1369L6.30101 16.952C5.16992 18.0831 5.16992 19.9169 6.30101 21.048L10.1161 24.8631C11.2472 25.9942 13.081 25.9942 14.2121 24.8631L18.0272 21.048C19.1583 19.9169 19.1583 18.0831 18.0272 16.952L14.2121 13.1369C13.081 12.0058 11.2472 12.0058 10.1161 13.1369Z" stroke="#153AA1" stroke-width="1.15854"/>
<path d="M39.4887 11.9445V27.1098H37.0442L29.8983 16.7791H29.7721V27.1098H27.0252V11.9445H29.4836L36.6225 22.281H36.7557V11.9445H39.4887ZM47.3251 27.3322C46.214 27.3322 45.2513 27.0878 44.4368 26.5988C43.6223 26.1101 42.9647 25.3986 42.5415 24.5482C42.0966 23.6678 41.8753 22.6413 41.8753 21.4665C41.8753 20.2918 42.0966 19.263 42.5415 18.379C42.9629 17.5254 43.6208 16.8108 44.4368 16.3203C45.2513 15.8314 46.214 15.587 47.3251 15.587C48.4361 15.587 49.3988 15.8303 50.2133 16.3203C51.0285 16.8096 51.6844 17.5247 52.1017 18.379C52.5512 19.263 52.776 20.2918 52.776 21.4665C52.776 22.6413 52.5512 23.6678 52.1017 24.5482C51.6827 25.3993 51.027 26.1113 50.2133 26.5988C49.3988 27.0878 48.4361 27.3322 47.3251 27.3322ZM47.3401 25.1843C47.9426 25.1843 48.4454 25.0186 48.8508 24.6884C49.2563 24.3524 49.5576 23.9029 49.7545 23.3399C49.9637 22.7354 50.0665 22.0992 50.058 21.4596C50.058 20.7633 49.9561 20.1342 49.7545 19.5712C49.5576 19.0035 49.2563 18.5517 48.8508 18.2157C48.4454 17.8797 47.9426 17.7129 47.3401 17.7129C46.7226 17.7129 46.2094 17.8797 45.7993 18.2157C45.3938 18.5517 45.0914 19.0035 44.8887 19.5712C44.6838 20.1794 44.5835 20.8179 44.5921 21.4596C44.5921 22.1501 44.6917 22.778 44.8887 23.3399C45.0914 23.9029 45.3949 24.3524 45.7993 24.6884C46.2094 25.0186 46.7226 25.1843 47.3401 25.1843ZM60.0122 27.3322C58.8768 27.3322 57.9013 27.0831 57.0869 26.5838C56.279 26.0871 55.6292 25.3706 55.2135 24.5181C54.7791 23.6342 54.5624 22.6181 54.5624 21.4665C54.5624 20.3115 54.7837 19.292 55.2286 18.408C55.6439 17.551 56.2966 16.8312 57.1089 16.3342C57.9245 15.836 58.8872 15.587 59.9971 15.587C60.9205 15.587 61.7384 15.7573 62.4486 16.0979C63.1646 16.4338 63.7346 16.91 64.1598 17.5275C64.5838 18.1392 64.8259 18.8552 64.885 19.6743H62.3223C62.231 19.1494 61.9711 18.6687 61.582 18.3049C61.1974 17.9342 60.6818 17.7488 60.0342 17.7488C59.5179 17.7394 59.0121 17.8952 58.5907 18.1937C58.1759 18.4845 57.8527 18.905 57.621 19.453C57.3939 20.001 57.2804 20.6579 57.2804 21.4225C57.2804 22.1976 57.3939 22.8637 57.621 23.4221C57.848 23.9748 58.1655 24.4023 58.5756 24.7035C59.0024 25.0033 59.5139 25.1588 60.0354 25.1472C60.4002 25.1533 60.7617 25.0773 61.0931 24.9248C61.4094 24.7718 61.6735 24.5529 61.8855 24.2656C62.0987 23.9794 62.2447 23.6318 62.3223 23.2229H64.885C64.8346 23.9848 64.5897 24.7212 64.1736 25.3615C63.7557 25.9862 63.1781 26.4875 62.5007 26.8132C61.794 27.1596 60.9657 27.3322 60.0122 27.3322ZM72.7665 15.7353V17.809H66.2277V15.7353H72.7665ZM67.8427 13.0104H70.5224V23.6886C70.5224 24.0489 70.5769 24.3258 70.6846 24.5181C70.7845 24.6935 70.9415 24.8293 71.1295 24.9028C71.3126 24.9723 71.5153 25.007 71.7366 25.007C71.9046 25.007 72.0575 24.9943 72.1965 24.9699C72.339 24.9445 72.4479 24.9236 72.5221 24.9028L72.9739 26.9997C72.8302 27.0484 72.6263 27.1028 72.3599 27.1619C72.0427 27.2277 71.7199 27.2626 71.396 27.2662C70.724 27.2847 70.1204 27.1839 69.5817 26.9615C69.0595 26.7471 68.6136 26.3811 68.3015 25.9107C67.9899 25.4357 67.8369 24.8437 67.8416 24.1323L67.8427 13.0104ZM75.0071 27.1098V15.7353H77.688V27.1098H75.0071ZM76.3545 14.1203C75.9483 14.1274 75.5552 13.9761 75.2585 13.6985C75.113 13.5698 74.9968 13.4113 74.9176 13.2339C74.8385 13.0564 74.7983 12.8641 74.7998 12.6698C74.7998 12.2643 74.9527 11.9213 75.2585 11.6398C75.5655 11.3537 75.9305 11.2112 76.3545 11.2112C76.7843 11.2112 77.1504 11.3537 77.4516 11.6398C77.7575 11.9213 77.9104 12.2654 77.9104 12.6698C77.9104 13.0695 77.7575 13.4112 77.4505 13.6985C77.1493 13.9801 76.7843 14.1203 76.3545 14.1203ZM89.4344 18.7417L86.991 19.0081C86.9181 18.7544 86.7948 18.518 86.6284 18.313C86.4472 18.0849 86.2135 17.904 85.9472 17.7859C85.661 17.6526 85.31 17.5866 84.8952 17.5866C84.338 17.5866 83.8688 17.7071 83.4888 17.9492C83.1134 18.1913 82.928 18.5053 82.9327 18.8899C82.9259 19.0435 82.9552 19.1965 83.0181 19.3367C83.0811 19.477 83.176 19.6005 83.2953 19.6974C83.5479 19.9037 83.9626 20.0751 84.5396 20.2072L86.4801 20.6231C87.5564 20.8548 88.3569 21.2221 88.8794 21.726C89.4077 22.23 89.6742 22.8881 89.6788 23.7037C89.6845 24.3876 89.4633 25.0542 89.0497 25.599C88.6396 26.1424 88.0696 26.5664 87.3386 26.8734C86.6087 27.1793 85.7688 27.3322 84.8211 27.3322C83.4285 27.3322 82.3082 27.0403 81.459 26.4575C80.6098 25.8701 80.1035 25.0534 79.9413 24.0072L82.555 23.7546C82.6743 24.269 82.9257 24.656 83.3104 24.9178C83.6962 25.1796 84.1966 25.3106 84.8141 25.3106C85.4513 25.3106 85.9611 25.1796 86.3469 24.9178C86.7373 24.656 86.9319 24.3328 86.9319 23.9481C86.935 23.7936 86.9025 23.6404 86.837 23.5005C86.7715 23.3605 86.6748 23.2374 86.5543 23.1406C86.3075 22.9286 85.9217 22.7653 85.3992 22.6517L83.4587 22.2439C82.3673 22.0168 81.5598 21.6345 81.0373 21.097C80.5136 20.5524 80.2541 19.8678 80.2599 19.0382C80.2541 18.3373 80.4453 17.7291 80.8299 17.2159C81.2204 16.698 81.7602 16.2983 82.4519 16.0168C83.147 15.7306 83.9499 15.587 84.8582 15.587C86.1905 15.587 87.2401 15.8708 88.0059 16.4385C88.7763 17.0062 89.2525 17.7743 89.4344 18.7417Z" fill="black"/>
</g>
<defs>
<linearGradient id="paint0_linear_36_2" x1="8.03938" y1="15.2136" x2="16.7697" y2="23.9439" gradientUnits="userSpaceOnUse">
<stop stop-color="#050505" stop-opacity="0.7"/>
<stop offset="1" stop-color="#121212"/>
</linearGradient>
<linearGradient id="paint1_linear_36_2" x1="8.03938" y1="15.2136" x2="16.7697" y2="23.9439" gradientUnits="userSpaceOnUse">
<stop stop-color="#153AA1"/>
<stop offset="1" stop-color="#00185E"/>
</linearGradient>
<clipPath id="clip0_36_2">
<rect width="95" height="38" fill="white"/>
</clipPath>
</defs>
</svg>
