<svg xmlns="http://www.w3.org/2000/svg" viewBox="0 0 48 48" width={48} height={48} preserveAspectRatio="xMidYMid slice" style={{width: '100%', height: '100%', transform: 'translate3d(0px, 0px, 0px)'}}><defs><clipPath id="__lottie_element_1232"><rect width={48} height={48} x={0} y={0} /></clipPath></defs><g clipPath="url(#__lottie_element_1232)"><g transform="matrix(0.999273419380188,0.03811357170343399,-0.03811357170343399,0.999273419380188,1.1621875762939453,-1.8872489929199219)" opacity={1} style={{display: 'block'}}><g opacity={1} transform="matrix(1,0,0,1,21.516000747680664,25.242000579833984)"><path fill="rgb(217,217,217)" fillOpacity={1} d=" M11.269000053405762,11.095999717712402 C11.269000053405762,11.095999717712402 -11.267999649047852,11.095999717712402 -11.267999649047852,11.095999717712402 C-13.069000244140625,11.095999717712402 -14.529000282287598,9.635000228881836 -14.529000282287598,7.835000038146973 C-14.529000282287598,7.835000038146973 -14.529000282287598,-9.449000358581543 -14.529000282287598,-9.449000358581543 C-14.529000282287598,-10.359000205993652 -13.791000366210938,-11.095999717712402 -12.881999969482422,-11.095999717712402 C-12.881999969482422,-11.095999717712402 12.883000373840332,-11.095999717712402 12.883000373840332,-11.095999717712402 C13.791999816894531,-11.095999717712402 14.529000282287598,-10.359000205993652 14.529000282287598,-9.449000358581543 C14.529000282287598,-9.449000358581543 14.529000282287598,7.835000038146973 14.529000282287598,7.835000038146973 C14.529000282287598,9.635000228881836 13.069999694824219,11.095999717712402 11.269000053405762,11.095999717712402z" /><path strokeLinecap="round" strokeLinejoin="round" fillOpacity={0} stroke="rgb(21,58,161)" strokeOpacity={1} strokeWidth={1} d=" M11.269000053405762,11.095999717712402 C11.269000053405762,11.095999717712402 -11.267999649047852,11.095999717712402 -11.267999649047852,11.095999717712402 C-13.069000244140625,11.095999717712402 -14.529000282287598,9.635000228881836 -14.529000282287598,7.835000038146973 C-14.529000282287598,7.835000038146973 -14.529000282287598,-9.449000358581543 -14.529000282287598,-9.449000358581543 C-14.529000282287598,-10.359000205993652 -13.791000366210938,-11.095999717712402 -12.881999969482422,-11.095999717712402 C-12.881999969482422,-11.095999717712402 12.883000373840332,-11.095999717712402 12.883000373840332,-11.095999717712402 C13.791999816894531,-11.095999717712402 14.529000282287598,-10.359000205993652 14.529000282287598,-9.449000358581543 C14.529000282287598,-9.449000358581543 14.529000282287598,7.835000038146973 14.529000282287598,7.835000038146973 C14.529000282287598,9.635000228881836 13.069999694824219,11.095999717712402 11.269000053405762,11.095999717712402z" /></g></g><g transform="matrix(0.999273419380188,0.03811357170343399,-0.03811357170343399,0.999273419380188,1.1621875762939453,-1.8872489929199219)" opacity={1} style={{display: 'block'}}><g opacity={1} transform="matrix(1,0,0,1,15.869999885559082,26.229999542236328)"><path fill="rgb(217,217,217)" fillOpacity={1} d=" M5.645999908447266,6.820000171661377 C5.645999908447266,6.820000171661377 -1.0036832094192505,6.820000171661377 -1.0036832094192505,6.820000171661377 C-2.0184342861175537,6.820000171661377 -2.8412792682647705,5.790999889373779 -2.8412792682647705,4.520999908447266 C-2.8412792682647705,4.520999908447266 -2.8412792682647705,-4.520999908447266 -2.8412792682647705,-4.520999908447266 C-2.8412792682647705,-5.789999961853027 -2.0184342861175537,-6.820000171661377 -1.0036832094192505,-6.820000171661377 C-1.0036832094192505,-6.820000171661377 3.494248867034912,-6.820000171661377 3.494248867034912,-6.820000171661377 C4.508999824523926,-6.820000171661377 5.645999908447266,-5.789999961853027 5.645999908447266,-4.520999908447266 C5.645999908447266,-4.520999908447266 5.645999908447266,6.820000171661377 5.645999908447266,6.820000171661377z" /><path strokeLinecap="round" strokeLinejoin="round" fillOpacity={0} stroke="rgb(21,58,161)" strokeOpacity={1} strokeWidth={1} d=" M5.645999908447266,6.820000171661377 C5.645999908447266,6.820000171661377 -1.0036832094192505,6.820000171661377 -1.0036832094192505,6.820000171661377 C-2.0184342861175537,6.820000171661377 -2.8412792682647705,5.790999889373779 -2.8412792682647705,4.520999908447266 C-2.8412792682647705,4.520999908447266 -2.8412792682647705,-4.520999908447266 -2.8412792682647705,-4.520999908447266 C-2.8412792682647705,-5.789999961853027 -2.0184342861175537,-6.820000171661377 -1.0036832094192505,-6.820000171661377 C-1.0036832094192505,-6.820000171661377 3.494248867034912,-6.820000171661377 3.494248867034912,-6.820000171661377 C4.508999824523926,-6.820000171661377 5.645999908447266,-5.789999961853027 5.645999908447266,-4.520999908447266 C5.645999908447266,-4.520999908447266 5.645999908447266,6.820000171661377 5.645999908447266,6.820000171661377z" /></g><g opacity={1} transform="matrix(1,0,0,1,27.160999298095703,26.229999542236328)"><path fill="rgb(217,217,217)" fillOpacity={1} d=" M-5.645999908447266,6.820000171661377 C-5.645999908447266,6.820000171661377 1.0030865669250488,6.820000171661377 1.0030865669250488,6.820000171661377 C2.0336496829986572,6.820000171661377 2.869323492050171,5.790999889373779 2.869323492050171,4.520999908447266 C2.869323492050171,4.520999908447266 2.869323492050171,-4.520999908447266 2.869323492050171,-4.520999908447266 C2.869323492050171,-5.789999961853027 2.0336496829986572,-6.820000171661377 1.0030865669250488,-6.820000171661377 C1.0030865669250488,-6.820000171661377 -3.564359426498413,-6.820000171661377 -3.564359426498413,-6.820000171661377 C-4.5949225425720215,-6.820000171661377 -5.645999908447266,-5.789999961853027 -5.645999908447266,-4.520999908447266 C-5.645999908447266,-4.520999908447266 -5.645999908447266,6.820000171661377 -5.645999908447266,6.820000171661377z" /><path strokeLinecap="round" strokeLinejoin="round" fillOpacity={0} stroke="rgb(21,58,161)" strokeOpacity={1} strokeWidth={1} d=" M-5.645999908447266,6.820000171661377 C-5.645999908447266,6.820000171661377 1.0030865669250488,6.820000171661377 1.0030865669250488,6.820000171661377 C2.0336496829986572,6.820000171661377 2.869323492050171,5.790999889373779 2.869323492050171,4.520999908447266 C2.869323492050171,4.520999908447266 2.869323492050171,-4.520999908447266 2.869323492050171,-4.520999908447266 C2.869323492050171,-5.789999961853027 2.0336496829986572,-6.820000171661377 1.0030865669250488,-6.820000171661377 C1.0030865669250488,-6.820000171661377 -3.564359426498413,-6.820000171661377 -3.564359426498413,-6.820000171661377 C-4.5949225425720215,-6.820000171661377 -5.645999908447266,-5.789999961853027 -5.645999908447266,-4.520999908447266 C-5.645999908447266,-4.520999908447266 -5.645999908447266,6.820000171661377 -5.645999908447266,6.820000171661377z" /></g><g opacity={1} transform="matrix(1,0,0,1,15.869999885559082,21.847000122070312)"><path fill="rgb(217,217,217)" fillOpacity={1} d=" M5.645999908447266,10.1850004196167 C5.645999908447266,10.1850004196167 4.833000183105469,9.305999755859375 4.833000183105469,9.305999755859375 C4.14900016784668,8.567000389099121 3.57692289352417,8.151000022888184 2.8762381076812744,8.151000022888184 C2.8762381076812744,8.151000022888184 -1.0036832094192505,8.151000022888184 -1.0036832094192505,8.151000022888184 C-2.0184342861175537,8.151000022888184 -2.8412792682647705,6.922999858856201 -2.8412792682647705,5.408999919891357 C-2.8412792682647705,5.408999919891357 -2.8412792682647705,-7.441999912261963 -2.8412792682647705,-7.441999912261963 C-2.8412792682647705,-8.956999778747559 -2.0184342861175537,-10.1850004196167 -1.0036832094192505,-10.1850004196167 C-1.0036832094192505,-10.1850004196167 3.494248867034912,-10.1850004196167 3.494248867034912,-10.1850004196167 C4.508999824523926,-10.1850004196167 5.645999908447266,-8.956999778747559 5.645999908447266,-7.441999912261963 C5.645999908447266,-7.441999912261963 5.645999908447266,10.1850004196167 5.645999908447266,10.1850004196167z" /><path strokeLinecap="round" strokeLinejoin="round" fillOpacity={0} stroke="rgb(21,58,161)" strokeOpacity={1} strokeWidth={1} d=" M5.645999908447266,10.1850004196167 C5.645999908447266,10.1850004196167 4.833000183105469,9.305999755859375 4.833000183105469,9.305999755859375 C4.14900016784668,8.567000389099121 3.57692289352417,8.151000022888184 2.8762381076812744,8.151000022888184 C2.8762381076812744,8.151000022888184 -1.0036832094192505,8.151000022888184 -1.0036832094192505,8.151000022888184 C-2.0184342861175537,8.151000022888184 -2.8412792682647705,6.922999858856201 -2.8412792682647705,5.408999919891357 C-2.8412792682647705,5.408999919891357 -2.8412792682647705,-7.441999912261963 -2.8412792682647705,-7.441999912261963 C-2.8412792682647705,-8.956999778747559 -2.0184342861175537,-10.1850004196167 -1.0036832094192505,-10.1850004196167 C-1.0036832094192505,-10.1850004196167 3.494248867034912,-10.1850004196167 3.494248867034912,-10.1850004196167 C4.508999824523926,-10.1850004196167 5.645999908447266,-8.956999778747559 5.645999908447266,-7.441999912261963 C5.645999908447266,-7.441999912261963 5.645999908447266,10.1850004196167 5.645999908447266,10.1850004196167z" /></g><g opacity={1} transform="matrix(1,0,0,1,27.160999298095703,21.847000122070312)"><path fill="rgb(217,217,217)" fillOpacity={1} d=" M-5.645999908447266,10.1850004196167 C-5.645999908447266,10.1850004196167 -4.833000183105469,9.305999755859375 -4.833000183105469,9.305999755859375 C-4.330392360687256,8.567000389099121 -3.647928476333618,8.151000022888184 -2.9365034103393555,8.151000022888184 C-2.9365034103393555,8.151000022888184 1.0030865669250488,8.151000022888184 1.0030865669250488,8.151000022888184 C2.0336496829986572,8.151000022888184 2.869323492050171,6.922999858856201 2.869323492050171,5.408999919891357 C2.869323492050171,5.408999919891357 2.869323492050171,-7.441999912261963 2.869323492050171,-7.441999912261963 C2.869323492050171,-8.956999778747559 2.0336496829986572,-10.1850004196167 1.0030865669250488,-10.1850004196167 C1.0030865669250488,-10.1850004196167 -3.564359426498413,-10.1850004196167 -3.564359426498413,-10.1850004196167 C-4.5949225425720215,-10.1850004196167 -5.645999908447266,-8.956999778747559 -5.645999908447266,-7.441999912261963 C-5.645999908447266,-7.441999912261963 -5.645999908447266,10.1850004196167 -5.645999908447266,10.1850004196167z" /><path strokeLinecap="round" strokeLinejoin="round" fillOpacity={0} stroke="rgb(21,58,161)" strokeOpacity={1} strokeWidth={1} d=" M-5.645999908447266,10.1850004196167 C-5.645999908447266,10.1850004196167 -4.833000183105469,9.305999755859375 -4.833000183105469,9.305999755859375 C-4.330392360687256,8.567000389099121 -3.647928476333618,8.151000022888184 -2.9365034103393555,8.151000022888184 C-2.9365034103393555,8.151000022888184 1.0030865669250488,8.151000022888184 1.0030865669250488,8.151000022888184 C2.0336496829986572,8.151000022888184 2.869323492050171,6.922999858856201 2.869323492050171,5.408999919891357 C2.869323492050171,5.408999919891357 2.869323492050171,-7.441999912261963 2.869323492050171,-7.441999912261963 C2.869323492050171,-8.956999778747559 2.0336496829986572,-10.1850004196167 1.0030865669250488,-10.1850004196167 C1.0030865669250488,-10.1850004196167 -3.564359426498413,-10.1850004196167 -3.564359426498413,-10.1850004196167 C-4.5949225425720215,-10.1850004196167 -5.645999908447266,-8.956999778747559 -5.645999908447266,-7.441999912261963 C-5.645999908447266,-7.441999912261963 -5.645999908447266,10.1850004196167 -5.645999908447266,10.1850004196167z" /></g></g><g transform="matrix(0.999273419380188,0.03811357170343399,-0.03811357170343399,0.999273419380188,1.1621875762939453,-1.8872489929199219)" opacity={1} style={{display: 'block'}}><g opacity={1} transform="matrix(1,0,0,1,0,0)"><path strokeLinecap="round" strokeLinejoin="round" fillOpacity={0} stroke="rgb(21,58,161)" strokeOpacity={1} strokeWidth={1} d=" M16.40875244140625,16.395999908447266 C16.40875244140625,16.395999908447266 18.755779266357422,16.395999908447266 18.755779266357422,16.395999908447266" /></g><g opacity={1} transform="matrix(1,0,0,1,0,0)"><path strokeLinecap="round" strokeLinejoin="round" fillOpacity={0} stroke="rgb(21,58,161)" strokeOpacity={1} strokeWidth={1} d=" M16.40875244140625,20.21500015258789 C16.40875244140625,20.21500015258789 18.755779266357422,20.21500015258789 18.755779266357422,20.21500015258789" /></g><g opacity={1} transform="matrix(1,0,0,1,0,0)"><path strokeLinecap="round" strokeLinejoin="round" fillOpacity={0} stroke="rgb(21,58,161)" strokeOpacity={1} strokeWidth={1} d=" M18.180526733398438,24.033000946044922 C18.180526733398438,24.033000946044922 18.75507926940918,24.033000946044922 18.75507926940918,24.033000946044922" /></g><g opacity={1} transform="matrix(1,0,0,1,0,0)"><path strokeLinecap="round" strokeLinejoin="round" fillOpacity={0} stroke="rgb(21,58,161)" strokeOpacity={1} strokeWidth={1} d=" M26.44889259338379,16.395999908447266 C26.44889259338379,16.395999908447266 24.102567672729492,16.395999908447266 24.102567672729492,16.395999908447266" /></g><g opacity={1} transform="matrix(1,0,0,1,0,0)"><path strokeLinecap="round" strokeLinejoin="round" fillOpacity={0} stroke="rgb(21,58,161)" strokeOpacity={1} strokeWidth={1} d=" M26.44889259338379,20.21500015258789 C26.44889259338379,20.21500015258789 24.102567672729492,20.21500015258789 24.102567672729492,20.21500015258789" /></g><g opacity={1} transform="matrix(1,0,0,1,0,0)"><path strokeLinecap="round" strokeLinejoin="round" fillOpacity={0} stroke="rgb(21,58,161)" strokeOpacity={1} strokeWidth={1} d=" M24.676822662353516,24.033000946044922 C24.676822662353516,24.033000946044922 24.102567672729492,24.033000946044922 24.102567672729492,24.033000946044922" /></g></g><g transform="matrix(0.999273419380188,0.03811357170343399,-0.03811357170343399,0.999273419380188,1.1621875762939453,-1.8872489929199219)" opacity={1} style={{display: 'block'}}><g opacity={1} transform="matrix(1,0,0,1,36.125999450683594,25.8439998626709)"><path strokeLinecap="round" strokeLinejoin="round" fillOpacity={0} stroke="rgb(21,58,161)" strokeOpacity={1} strokeWidth={1} d=" M0.5289999842643738,0.5289999842643738 C0.5289999842643738,0.5289999842643738 -0.5299999713897705,-0.5289999842643738 -0.5299999713897705,-0.5289999842643738" /></g><g opacity={1} transform="matrix(1,0,0,1,38.74700164794922,28.46500015258789)"><path fill="rgb(217,217,217)" fillOpacity={1} d=" M-1.8919999599456787,-1.8919999599456787 C-1.8919999599456787,-1.8919999599456787 -1.8919999599456787,-1.8919999599456787 -1.8919999599456787,-1.8919999599456787 C-2.390000104904175,-1.3940000534057617 -2.390000104904175,-0.5879999995231628 -1.8919999599456787,-0.09000000357627869 C-1.8919999599456787,-0.09000000357627869 0.09099999815225601,1.8930000066757202 0.09099999815225601,1.8930000066757202 C0.5889999866485596,2.390000104904175 1.3949999809265137,2.390000104904175 1.8930000066757202,1.8930000066757202 C2.390000104904175,1.3949999809265137 2.390000104904175,0.5889999866485596 1.8930000066757202,0.09099999815225601 C1.8930000066757202,0.09099999815225601 -0.09000000357627869,-1.8919999599456787 -0.09000000357627869,-1.8919999599456787 C-0.5879999995231628,-2.390000104904175 -1.3940000534057617,-2.390000104904175 -1.8919999599456787,-1.8919999599456787z" /><path strokeLinecap="round" strokeLinejoin="round" fillOpacity={0} stroke="rgb(21,58,161)" strokeOpacity={1} strokeWidth={1} d=" M-1.8919999599456787,-1.8919999599456787 C-1.8919999599456787,-1.8919999599456787 -1.8919999599456787,-1.8919999599456787 -1.8919999599456787,-1.8919999599456787 C-2.390000104904175,-1.3940000534057617 -2.390000104904175,-0.5879999995231628 -1.8919999599456787,-0.09000000357627869 C-1.8919999599456787,-0.09000000357627869 0.09099999815225601,1.8930000066757202 0.09099999815225601,1.8930000066757202 C0.5889999866485596,2.390000104904175 1.3949999809265137,2.390000104904175 1.8930000066757202,1.8930000066757202 C2.390000104904175,1.3949999809265137 2.390000104904175,0.5889999866485596 1.8930000066757202,0.09099999815225601 C1.8930000066757202,0.09099999815225601 -0.09000000357627869,-1.8919999599456787 -0.09000000357627869,-1.8919999599456787 C-0.5879999995231628,-2.390000104904175 -1.3940000534057617,-2.390000104904175 -1.8919999599456787,-1.8919999599456787z" /></g><g opacity={1} transform="matrix(1,0,0,1,31.87700080871582,21.594999313354492)"><path fill="rgb(217,217,217)" fillOpacity={1} d=" M-3.7200000286102295,3.7200000286102295 C-5.77400016784668,1.6660000085830688 -5.77400016784668,-1.6649999618530273 -3.7200000286102295,-3.7200000286102295 C-1.6660000085830688,-5.77400016784668 1.6649999618530273,-5.77400016784668 3.7200000286102295,-3.7200000286102295 C5.77400016784668,-1.6649999618530273 5.77400016784668,1.6660000085830688 3.7200000286102295,3.7200000286102295 C1.6649999618530273,5.77400016784668 -1.6660000085830688,5.77400016784668 -3.7200000286102295,3.7200000286102295z" /></g><g opacity={1} transform="matrix(1,0,0,1,31.87700080871582,21.594999313354492)"><path strokeLinecap="round" strokeLinejoin="round" fillOpacity={0} stroke="rgb(21,58,161)" strokeOpacity={1} strokeWidth={1} d=" M-3.7200000286102295,3.7200000286102295 C-5.77400016784668,1.6660000085830688 -5.77400016784668,-1.6649999618530273 -3.7200000286102295,-3.7200000286102295 C-1.6660000085830688,-5.77400016784668 1.6649999618530273,-5.77400016784668 3.7200000286102295,-3.7200000286102295 C5.77400016784668,-1.6649999618530273 5.77400016784668,1.6660000085830688 3.7200000286102295,3.7200000286102295 C1.6649999618530273,5.77400016784668 -1.6660000085830688,5.77400016784668 -3.7200000286102295,3.7200000286102295z" /></g></g></g></svg>
