<svg width="85" height="16" viewBox="0 0 85 16" fill="none" xmlns="http://www.w3.org/2000/svg">
<path d="M5.06076 2.76777L1.76777 6.06076C0.791456 7.03707 0.791456 8.61999 1.76777 9.5963L5.06076 12.8893C6.03707 13.8656 7.61999 13.8656 8.5963 12.8893L11.8893 9.5963C12.8656 8.61999 12.8656 7.03707 11.8893 6.06076L8.5963 2.76777C7.61999 1.79146 6.03707 1.79146 5.06076 2.76777Z" fill="url(#paint0_linear_1_8)"/>
<path d="M5.06076 2.76777L1.76777 6.06076C0.791456 7.03707 0.791456 8.61999 1.76777 9.5963L5.06076 12.8893C6.03707 13.8656 7.61999 13.8656 8.5963 12.8893L11.8893 9.5963C12.8656 8.61999 12.8656 7.03707 11.8893 6.06076L8.5963 2.76777C7.61999 1.79146 6.03707 1.79146 5.06076 2.76777Z" fill="url(#paint1_linear_1_8)"/>
<path d="M5.06076 2.76777L1.76777 6.06076C0.791456 7.03707 0.791456 8.61999 1.76777 9.5963L5.06076 12.8893C6.03707 13.8656 7.61999 13.8656 8.5963 12.8893L11.8893 9.5963C12.8656 8.61999 12.8656 7.03707 11.8893 6.06076L8.5963 2.76777C7.61999 1.79146 6.03707 1.79146 5.06076 2.76777Z" stroke="#153AA1"/>
<path d="M25.7021 3.54545V13H24.1786L19.7237 6.56001H19.6452V13H17.9325V3.54545H19.4652L23.9155 9.99006H23.9986V3.54545H25.7021ZM30.6336 13.1385C29.9227 13.1385 29.3087 12.9908 28.7916 12.6953C28.2777 12.3968 27.8822 11.9751 27.6052 11.4304C27.3282 10.8826 27.1897 10.2378 27.1897 9.49609C27.1897 8.76669 27.3282 8.12654 27.6052 7.57564C27.8853 7.02166 28.2761 6.59079 28.7778 6.28303C29.2794 5.97218 29.8688 5.81676 30.5459 5.81676C30.9829 5.81676 31.3953 5.88755 31.7831 6.02912C32.174 6.16761 32.5187 6.38305 32.8172 6.67543C33.1188 6.9678 33.3558 7.3402 33.5281 7.79261C33.7005 8.24195 33.7867 8.77746 33.7867 9.39915V9.91158H27.9745V8.78516H32.1847C32.1817 8.46508 32.1124 8.1804 31.977 7.93111C31.8416 7.67874 31.6523 7.48023 31.4092 7.33558C31.1691 7.19093 30.8891 7.11861 30.569 7.11861C30.2274 7.11861 29.9273 7.2017 29.6688 7.3679C29.4102 7.53101 29.2087 7.74645 29.064 8.0142C28.9224 8.27888 28.8501 8.56972 28.847 8.88672V9.87003C28.847 10.2824 28.9224 10.6364 29.0732 10.9318C29.224 11.2242 29.4349 11.4489 29.7057 11.6058C29.9765 11.7597 30.2935 11.8366 30.6567 11.8366C30.8998 11.8366 31.1199 11.8028 31.3169 11.7351C31.5138 11.6643 31.6846 11.5612 31.8293 11.4258C31.9739 11.2904 32.0832 11.1226 32.157 10.9226L33.7174 11.098C33.6189 11.5104 33.4312 11.8705 33.1542 12.1783C32.8803 12.483 32.5294 12.7199 32.1017 12.8892C31.6739 13.0554 31.1845 13.1385 30.6336 13.1385ZM39.72 10.0178V5.90909H41.3912V13H39.7708V11.7397H39.6969C39.5369 12.1367 39.2737 12.4614 38.9075 12.7138C38.5443 12.9661 38.0965 13.0923 37.5641 13.0923C37.0994 13.0923 36.6885 12.9892 36.3315 12.783C35.9776 12.5737 35.7006 12.2706 35.5005 11.8736C35.3005 11.4735 35.2005 10.9903 35.2005 10.424V5.90909H36.8716V10.1655C36.8716 10.6148 36.9947 10.9718 37.2409 11.2365C37.4872 11.5012 37.8103 11.6335 38.2104 11.6335C38.4566 11.6335 38.6951 11.5735 38.926 11.4535C39.1568 11.3335 39.3461 11.1549 39.4938 10.918C39.6446 10.6779 39.72 10.3778 39.72 10.0178ZM43.1096 13V5.90909H44.73V7.09091H44.8039C44.9331 6.68158 45.1547 6.36612 45.4687 6.14453C45.7857 5.91986 46.1473 5.80753 46.5535 5.80753C46.6459 5.80753 46.749 5.81214 46.8628 5.82138C46.9798 5.82753 47.0767 5.8383 47.1537 5.85369V7.39098C47.0829 7.36636 46.9706 7.34482 46.8167 7.32635C46.6659 7.30481 46.5197 7.29403 46.3781 7.29403C46.0734 7.29403 45.7995 7.3602 45.5564 7.49254C45.3163 7.6218 45.127 7.80185 44.9885 8.03267C44.8501 8.26349 44.7808 8.52971 44.7808 8.83132V13H43.1096ZM51.065 13.1385C50.3725 13.1385 49.7724 12.9862 49.2646 12.6815C48.7567 12.3768 48.3628 11.9505 48.0827 11.4027C47.8058 10.8549 47.6673 10.2147 47.6673 9.48224C47.6673 8.74976 47.8058 8.10807 48.0827 7.55717C48.3628 7.00627 48.7567 6.57848 49.2646 6.27379C49.7724 5.96911 50.3725 5.81676 51.065 5.81676C51.7575 5.81676 52.3576 5.96911 52.8654 6.27379C53.3732 6.57848 53.7656 7.00627 54.0426 7.55717C54.3227 8.10807 54.4627 8.74976 54.4627 9.48224C54.4627 10.2147 54.3227 10.8549 54.0426 11.4027C53.7656 11.9505 53.3732 12.3768 52.8654 12.6815C52.3576 12.9862 51.7575 13.1385 51.065 13.1385ZM51.0742 11.7997C51.4497 11.7997 51.7636 11.6966 52.016 11.4904C52.2683 11.2811 52.4561 11.0011 52.5792 10.6502C52.7054 10.2994 52.7685 9.9085 52.7685 9.47763C52.7685 9.04368 52.7054 8.65128 52.5792 8.30043C52.4561 7.9465 52.2683 7.66489 52.016 7.45561C51.7636 7.24633 51.4497 7.14169 51.0742 7.14169C50.6895 7.14169 50.3694 7.24633 50.114 7.45561C49.8616 7.66489 49.6723 7.9465 49.5462 8.30043C49.4231 8.65128 49.3615 9.04368 49.3615 9.47763C49.3615 9.9085 49.4231 10.2994 49.5462 10.6502C49.6723 11.0011 49.8616 11.2811 50.114 11.4904C50.3694 11.6966 50.6895 11.7997 51.0742 11.7997ZM55.8811 15.6591V5.90909H57.5246V7.08168H57.6215C57.7077 6.90933 57.8293 6.72621 57.9862 6.53232C58.1432 6.33535 58.3556 6.16761 58.6233 6.02912C58.8911 5.88755 59.2327 5.81676 59.6482 5.81676C60.196 5.81676 60.69 5.95679 61.1301 6.23686C61.5732 6.51385 61.9241 6.92472 62.1826 7.46946C62.4442 8.01113 62.575 8.6759 62.575 9.46378C62.575 10.2424 62.4473 10.9041 62.1919 11.4489C61.9364 11.9936 61.5886 12.4091 61.1485 12.6953C60.7084 12.9815 60.2098 13.1246 59.6528 13.1246C59.2465 13.1246 58.9095 13.0569 58.6418 12.9215C58.374 12.7861 58.1586 12.623 57.9955 12.4322C57.8354 12.2383 57.7108 12.0552 57.6215 11.8828H57.5523V15.6591H55.8811ZM57.52 9.45455C57.52 9.91312 57.5846 10.3147 57.7139 10.6594C57.8462 11.0041 58.0355 11.2734 58.2817 11.4673C58.531 11.6581 58.8326 11.7536 59.1865 11.7536C59.5558 11.7536 59.8651 11.6551 60.1144 11.4581C60.3637 11.258 60.5515 10.9857 60.6776 10.641C60.8069 10.2932 60.8715 9.89773 60.8715 9.45455C60.8715 9.01444 60.8084 8.62358 60.6823 8.28196C60.5561 7.94034 60.3683 7.67259 60.1191 7.47869C59.8698 7.2848 59.5589 7.18785 59.1865 7.18785C58.8295 7.18785 58.5264 7.28172 58.2771 7.46946C58.0278 7.6572 57.8385 7.92034 57.7093 8.25888C57.5831 8.59742 57.52 8.99598 57.52 9.45455ZM67.0992 13.1385C66.4067 13.1385 65.8066 12.9862 65.2987 12.6815C64.7909 12.3768 64.397 11.9505 64.1169 11.4027C63.8399 10.8549 63.7014 10.2147 63.7014 9.48224C63.7014 8.74976 63.8399 8.10807 64.1169 7.55717C64.397 7.00627 64.7909 6.57848 65.2987 6.27379C65.8066 5.96911 66.4067 5.81676 67.0992 5.81676C67.7916 5.81676 68.3918 5.96911 68.8996 6.27379C69.4074 6.57848 69.7998 7.00627 70.0768 7.55717C70.3569 8.10807 70.4969 8.74976 70.4969 9.48224C70.4969 10.2147 70.3569 10.8549 70.0768 11.4027C69.7998 11.9505 69.4074 12.3768 68.8996 12.6815C68.3918 12.9862 67.7916 13.1385 67.0992 13.1385ZM67.1084 11.7997C67.4839 11.7997 67.7978 11.6966 68.0502 11.4904C68.3025 11.2811 68.4903 11.0011 68.6134 10.6502C68.7396 10.2994 68.8026 9.9085 68.8026 9.47763C68.8026 9.04368 68.7396 8.65128 68.6134 8.30043C68.4903 7.9465 68.3025 7.66489 68.0502 7.45561C67.7978 7.24633 67.4839 7.14169 67.1084 7.14169C66.7237 7.14169 66.4036 7.24633 66.1482 7.45561C65.8958 7.66489 65.7065 7.9465 65.5803 8.30043C65.4572 8.65128 65.3957 9.04368 65.3957 9.47763C65.3957 9.9085 65.4572 10.2994 65.5803 10.6502C65.7065 11.0011 65.8958 11.2811 66.1482 11.4904C66.4036 11.6966 66.7237 11.7997 67.1084 11.7997ZM73.5865 3.54545V13H71.9153V3.54545H73.5865ZM75.305 13V5.90909H76.9761V13H75.305ZM76.1452 4.9027C75.8805 4.9027 75.6527 4.81499 75.4619 4.63956C75.2711 4.46106 75.1757 4.24716 75.1757 3.99787C75.1757 3.7455 75.2711 3.5316 75.4619 3.35618C75.6527 3.17767 75.8805 3.08842 76.1452 3.08842C76.4129 3.08842 76.6407 3.17767 76.8284 3.35618C77.0192 3.5316 77.1146 3.7455 77.1146 3.99787C77.1146 4.24716 77.0192 4.46106 76.8284 4.63956C76.6407 4.81499 76.4129 4.9027 76.1452 4.9027ZM84.299 7.78338L82.7756 7.94957C82.7325 7.79569 82.6571 7.65104 82.5494 7.51562C82.4447 7.38021 82.3031 7.27095 82.1246 7.18785C81.9461 7.10476 81.7276 7.06321 81.4691 7.06321C81.1213 7.06321 80.829 7.13861 80.592 7.28942C80.3581 7.44022 80.2427 7.63565 80.2457 7.87571C80.2427 8.08191 80.3181 8.24964 80.4719 8.37891C80.6289 8.50817 80.8874 8.61435 81.2475 8.69744L82.457 8.95597C83.128 9.10062 83.6265 9.3299 83.9528 9.64382C84.2821 9.95774 84.4483 10.3686 84.4513 10.8764C84.4483 11.3227 84.3175 11.7166 84.0589 12.0582C83.8035 12.3968 83.448 12.6615 82.9925 12.8523C82.5371 13.0431 82.0138 13.1385 81.4229 13.1385C80.555 13.1385 79.8564 12.9569 79.3271 12.5938C78.7977 12.2275 78.4822 11.7182 78.3807 11.0657L80.0103 10.9087C80.0842 11.2288 80.2411 11.4704 80.4812 11.6335C80.7212 11.7966 81.0336 11.8782 81.4183 11.8782C81.8153 11.8782 82.1339 11.7966 82.3739 11.6335C82.6171 11.4704 82.7386 11.2688 82.7386 11.0288C82.7386 10.8256 82.6602 10.6579 82.5032 10.5256C82.3493 10.3932 82.1093 10.2917 81.783 10.2209L80.5735 9.96697C79.8933 9.8254 79.3902 9.58688 79.0639 9.25142C78.7377 8.91288 78.5761 8.48509 78.5792 7.96804C78.5761 7.53101 78.6946 7.15246 78.9347 6.83239C79.1778 6.50923 79.5148 6.25994 79.9457 6.08452C80.3796 5.90601 80.8797 5.81676 81.446 5.81676C82.277 5.81676 82.931 5.99373 83.408 6.34766C83.8881 6.70159 84.1851 7.18016 84.299 7.78338Z" fill="white"/>
<defs>
<linearGradient id="paint0_linear_1_8" x1="3.26825" y1="4.56028" x2="10.8039" y2="12.0959" gradientUnits="userSpaceOnUse">
<stop stop-color="#050505" stop-opacity="0.7"/>
<stop offset="1" stop-color="#121212"/>
</linearGradient>
<linearGradient id="paint1_linear_1_8" x1="3.26825" y1="4.56028" x2="10.8039" y2="12.0959" gradientUnits="userSpaceOnUse">
<stop stop-color="#153AA1"/>
<stop offset="1" stop-color="#00185E"/>
</linearGradient>
</defs>
</svg>
